<svg xmlns="http://www.w3.org/2000/svg" xmlns:xlink="http://www.w3.org/1999/xlink" width="40" zoomAndPan="magnify" viewBox="0 0 30 30.000001" height="40" preserveAspectRatio="xMidYMid meet" version="1.0"><defs><g/></defs><g fill="#ffffff" fill-opacity="1"><g transform="translate(4.741599, 16.376169)"><g><path d="M 0.921875 -12.734375 L 4.875 -12.734375 C 6.070312 -12.734375 7.023438 -12.476562 7.734375 -11.96875 C 8.441406 -11.457031 8.796875 -10.632812 8.796875 -9.5 C 8.796875 -8.21875 8.265625 -7.304688 7.203125 -6.765625 C 9.015625 -6.441406 9.921875 -5.367188 9.921875 -3.546875 C 9.921875 -2.472656 9.550781 -1.613281 8.8125 -0.96875 C 8.070312 -0.320312 7.054688 0 5.765625 0 L 0.921875 0 Z M 3.828125 -7.75 L 4.0625 -7.75 C 4.707031 -7.75 5.1875 -7.859375 5.5 -8.078125 C 5.820312 -8.304688 5.984375 -8.679688 5.984375 -9.203125 C 5.984375 -10.066406 5.34375 -10.5 4.0625 -10.5 L 3.828125 -10.5 Z M 3.828125 -2.234375 L 4.734375 -2.234375 C 6.160156 -2.234375 6.875 -2.707031 6.875 -3.65625 C 6.875 -4.21875 6.691406 -4.625 6.328125 -4.875 C 5.972656 -5.125 5.441406 -5.25 4.734375 -5.25 L 3.828125 -5.25 Z M 3.828125 -2.234375 "/></g></g></g><g fill="#ffffff" fill-opacity="1"><g transform="translate(11.825407, 22.717036)"><g><path d="M 8.421875 0 L 6.8125 -5.625 L 5.21875 0 L 2.671875 0 L -0.1875 -10.03125 L 2.359375 -10.03125 L 4.078125 -3.15625 L 4.140625 -3.15625 L 5.953125 -10.03125 L 7.6875 -10.03125 L 9.5 -3.15625 L 9.5625 -3.15625 L 11.28125 -10.03125 L 13.8125 -10.03125 L 10.953125 0 Z M 8.421875 0 "/></g></g></g></svg>